<?xml version="1.0" encoding="UTF-8"?><svg id="a" xmlns="http://www.w3.org/2000/svg" xmlns:xlink="http://www.w3.org/1999/xlink" viewBox="0 0 499.04 489.8"><defs><style>.j{fill:url(#c);}.k{fill:url(#d);}.l{fill:url(#h);}.m{fill:url(#g);}.n{fill:url(#e);}.o{fill:url(#i);}.p{fill:url(#f);}.q{fill:url(#b);}</style><linearGradient id="b" x1="82.34" y1="74.04" x2="82.34" y2="238.5" gradientUnits="userSpaceOnUse"><stop offset="0" stop-color="#ff396f"/><stop offset="1" stop-color="#b93bbe"/></linearGradient><linearGradient id="c" x1="80.53" y1="76.81" x2="244.95" y2="76.81" gradientUnits="userSpaceOnUse"><stop offset="0" stop-color="#ff3b5b"/><stop offset="1" stop-color="#ff1fa3"/></linearGradient><linearGradient id="d" x1="416.7" y1="238.5" x2="416.7" y2="74.04" gradientUnits="userSpaceOnUse"><stop offset="0" stop-color="#e8ea00"/><stop offset="1" stop-color="#ffbb5d"/></linearGradient><linearGradient id="e" x1="254.09" y1="412.11" x2="420.38" y2="412.11" gradientUnits="userSpaceOnUse"><stop offset="0" stop-color="#00debf"/><stop offset=".99" stop-color="#00ff7a"/></linearGradient><linearGradient id="f" x1="81.42" y1="247.64" x2="81.42" y2="413.9" gradientUnits="userSpaceOnUse"><stop offset="0" stop-color="#b93bbe"/><stop offset=".96" stop-color="#4b8bff"/></linearGradient><linearGradient id="g" x1="417.62" y1="413.9" x2="417.62" y2="247.64" gradientUnits="userSpaceOnUse"><stop offset=".25" stop-color="#00ff7a"/><stop offset="1" stop-color="#c9ff26"/></linearGradient><linearGradient id="h" x1="78.66" y1="412.11" x2="244.95" y2="412.11" gradientUnits="userSpaceOnUse"><stop offset="0" stop-color="#4b8bff"/><stop offset="1" stop-color="#00debf"/></linearGradient><linearGradient id="i" x1="247.98" y1="6.11" x2="364" y2="122.13" gradientUnits="userSpaceOnUse"><stop offset="0" stop-color="#ff28a4"/><stop offset=".99" stop-color="#ffbb5d"/></linearGradient></defs><path class="q" d="M4.68,238.5h121.65c1.5-29.5,13.33-57.06,33.67-78.48l-85.97-85.98C30.75,118.45,6.26,176.53,4.68,238.5Z"/><path class="j" d="M80.53,67.61l86.01,86.01c21.65-19.71,49.19-30.96,78.42-32.02V0c-61.71,1.12-119.77,25-164.43,67.61Z"/><path class="k" d="M372.71,238.5h121.65c-1.58-61.98-26.07-120.05-69.35-164.46l-85.97,85.98c20.34,21.42,32.17,48.99,33.67,78.48Z"/><path class="n" d="M254.09,368.2v121.6c62.67-1.14,121.39-25.65,166.29-69.41l-85.98-85.97c-21.92,20.83-50.13,32.69-80.31,33.78Z"/><path class="p" d="M4.6,247.64c.68,62.39,24.61,121.15,67.64,166.25l86.01-86.01c-20.12-22.1-31.43-50.34-32.08-80.24H4.6Z"/><path class="m" d="M340.8,327.89l86.01,86.01c43.03-45.1,66.96-103.87,67.64-166.25h-121.57c-.65,29.91-11.95,58.15-32.08,80.24Z"/><path class="l" d="M78.66,420.39c44.9,43.76,103.62,68.27,166.29,69.41v-121.6c-30.18-1.09-58.4-12.96-80.31-33.78l-85.98,85.97Z"/><path class="o" d="M332.77,153.36l85.75-85.75C373.86,25,315.8,1.12,254.09,0v121.25c30.26,1.11,57.75,13.05,78.67,32.11Z"/></svg>